<?xml version="1.0" standalone="no"?>
<!DOCTYPE svg PUBLIC "-//W3C//DTD SVG 20010904//EN"
 "http://www.w3.org/TR/2001/REC-SVG-20010904/DTD/svg10.dtd">
<svg version="1.0" xmlns="http://www.w3.org/2000/svg"
 width="1080.000000pt" height="1080.000000pt" viewBox="0 0 1080.000000 1080.000000"
 preserveAspectRatio="xMidYMid meet">

<g transform="translate(0.000000,1080.000000) scale(0.100000,-0.100000)"
fill="#000000" stroke="none">
<path d="M0 5400 l0 -5400 5400 0 5400 0 0 5400 0 5400 -5400 0 -5400 0 0
-5400z m5449 594 c95 -16 192 -63 236 -115 44 -53 87 -149 101 -229 17 -94 19
-542 3 -661 -23 -172 -125 -305 -275 -361 -54 -20 -82 -22 -327 -26 -148 -2
-280 -1 -294 3 -16 4 -30 19 -40 43 -14 33 -15 111 -11 667 6 667 6 680 52
690 32 8 269 12 376 8 52 -3 133 -11 179 -19z m2726 12 c74 -19 114 -41 171
-90 111 -97 182 -319 122 -377 -21 -19 -31 -21 -132 -17 -117 5 -131 11 -142
68 -3 14 -15 45 -27 69 -30 61 -83 84 -183 79 -61 -3 -77 -7 -99 -28 -64 -59
-73 -130 -24 -180 41 -40 57 -48 229 -110 189 -69 250 -100 295 -152 54 -63
73 -106 86 -200 11 -73 10 -93 -5 -153 -37 -147 -99 -236 -199 -285 -77 -37
-143 -50 -264 -50 -157 0 -260 36 -342 118 -81 83 -131 205 -131 323 0 79 8
84 141 84 127 0 133 -3 155 -91 30 -114 68 -145 185 -152 102 -6 160 36 175
125 13 83 -37 126 -218 189 -160 56 -242 99 -315 168 -77 71 -99 114 -108 211
-12 124 45 287 127 360 41 37 140 89 188 98 57 10 267 6 315 -7z m-5216 -25
c11 -16 35 -66 52 -112 60 -160 201 -574 230 -674 16 -55 61 -198 100 -318 72
-221 78 -257 42 -272 -25 -9 -188 -7 -216 4 -35 14 -44 29 -85 152 l-38 114
-209 0 -209 0 -31 -110 c-39 -135 -47 -151 -82 -160 -44 -11 -200 -7 -224 5
-17 10 -20 19 -17 53 5 45 88 316 197 647 106 318 168 508 190 587 31 103 46
113 177 113 102 0 103 0 123 -29z m859 23 c12 -4 30 -21 39 -38 8 -17 39 -67
68 -111 29 -44 84 -136 123 -205 38 -69 90 -156 114 -195 25 -38 66 -107 92
-152 26 -46 52 -83 57 -83 5 0 9 157 9 373 0 449 -13 412 145 412 73 0 107 -4
119 -14 16 -13 17 -62 14 -694 -3 -647 -4 -679 -22 -692 -28 -21 -201 -17
-228 5 -11 9 -61 84 -112 168 -50 83 -117 195 -150 249 -32 54 -72 121 -89
148 -17 28 -52 88 -79 135 l-48 85 -2 -325 c-1 -179 -1 -349 1 -378 1 -36 -3
-62 -14 -78 -16 -24 -18 -25 -124 -21 -59 2 -116 9 -127 15 -20 11 -20 18 -17
683 3 706 2 691 48 709 24 10 150 12 183 4z m2401 -16 c24 -18 54 -69 124
-213 51 -104 97 -192 101 -195 4 -3 17 20 30 51 12 30 35 78 50 105 16 27 42
74 59 104 96 172 93 170 222 169 126 -1 139 -6 143 -52 2 -28 -6 -52 -37 -106
-23 -38 -41 -73 -41 -77 0 -4 -38 -75 -85 -158 -46 -83 -97 -182 -113 -221
-17 -38 -44 -101 -61 -138 l-31 -69 0 -274 c0 -337 11 -314 -148 -314 -94 0
-111 3 -126 19 -15 17 -17 49 -15 318 l1 299 -111 225 c-61 123 -140 280 -176
349 -40 77 -64 135 -63 150 4 37 41 50 149 50 84 0 100 -3 128 -22z m1095 12
c15 -5 28 -20 32 -37 10 -38 -51 -443 -69 -460 -8 -8 -37 -15 -66 -15 -82 -2
-87 6 -105 205 -17 183 -20 266 -8 283 16 24 50 33 119 34 39 0 83 -4 97 -10z
m-4677 -1680 c84 -36 123 -122 104 -226 -13 -66 -39 -106 -95 -142 -35 -22
-54 -27 -136 -30 l-96 -4 -2 -130 c-1 -72 -4 -134 -7 -138 -9 -14 -94 -22
-115 -10 -20 10 -20 19 -20 345 0 300 2 335 17 350 15 15 35 17 157 13 119 -4
149 -8 193 -28z m351 18 c8 -8 12 -55 12 -145 l0 -133 90 0 90 0 0 135 c0 125
1 135 20 145 29 16 111 8 123 -11 6 -10 7 -133 1 -355 l-9 -339 -44 -3 c-93
-7 -91 -10 -91 143 l0 135 -95 0 -94 0 -3 -137 -3 -138 -44 -3 c-25 -2 -55 -1
-68 3 l-23 5 0 345 c0 317 1 345 18 354 24 14 105 14 120 -1z m841 -22 c26
-18 53 -50 69 -80 27 -50 27 -54 27 -246 0 -194 0 -195 -28 -247 -17 -34 -43
-63 -69 -80 -36 -24 -53 -28 -131 -32 -145 -5 -205 30 -243 141 -26 75 -27
347 -2 429 37 117 92 151 239 147 87 -3 99 -6 138 -32z m609 25 c9 -5 12 -28
10 -72 l-3 -64 -72 -3 -73 -3 0 -275 0 -274 -26 -10 c-33 -13 -80 -13 -105 1
-19 10 -20 20 -17 282 l2 272 -74 5 -75 5 -3 58 c-2 32 2 65 8 72 8 10 59 13
213 13 112 1 209 -3 215 -7z m479 -27 c21 -17 49 -51 63 -75 24 -43 25 -49 25
-249 0 -192 -1 -208 -22 -246 -48 -89 -111 -118 -243 -112 -109 5 -148 27
-186 105 -31 63 -44 204 -33 354 8 105 26 159 67 203 45 47 76 56 189 54 96
-3 103 -4 140 -34z m580 10 c48 -36 91 -101 99 -149 9 -63 -4 -75 -78 -75
l-59 0 -19 44 c-10 25 -28 49 -39 55 -33 18 -78 13 -108 -13 l-28 -24 0 -172
0 -172 29 -25 c24 -21 37 -24 69 -20 48 7 74 30 83 75 6 31 6 32 -30 32 -61 0
-76 14 -76 70 0 76 12 83 136 77 56 -3 107 -8 113 -11 14 -9 14 -188 0 -239
-13 -47 -72 -115 -116 -134 -45 -18 -184 -17 -231 3 -104 43 -127 106 -127
344 0 234 19 289 120 344 47 25 223 19 262 -10z m580 -4 c59 -25 85 -58 103
-132 14 -56 1 -135 -31 -180 -23 -32 -90 -78 -114 -78 -8 0 -15 -3 -15 -6 0
-3 41 -61 90 -129 50 -68 90 -130 90 -139 0 -13 -13 -16 -78 -16 -92 0 -83 -6
-188 144 l-69 99 -8 -49 c-4 -27 -6 -76 -5 -109 1 -33 -1 -65 -5 -71 -8 -14
-90 -27 -117 -19 -19 6 -20 16 -20 350 0 317 1 345 18 355 11 7 67 9 157 7
119 -3 148 -7 192 -27z m518 6 c25 -37 225 -629 225 -664 0 -25 -29 -33 -87
-25 l-58 8 -20 57 c-11 31 -22 59 -25 61 -3 3 -50 7 -104 9 l-99 3 -16 -57
c-9 -31 -22 -63 -28 -69 -17 -17 -118 -18 -134 -2 -14 14 -21 -11 113 408 44
138 87 260 94 273 12 18 23 22 69 22 47 0 57 -4 70 -24z m612 13 c109 -19 159
-71 170 -173 8 -80 -11 -138 -59 -182 -57 -51 -95 -64 -187 -64 l-80 0 -3
-137 -3 -138 -50 -8 c-31 -5 -58 -4 -73 2 l-23 11 3 340 c3 290 5 342 18 350
21 13 209 12 287 -1z m418 -5 c13 -14 16 -37 13 -145 l-3 -129 93 0 92 0 0
133 c0 90 4 137 12 145 7 7 33 12 59 12 84 0 81 14 74 -364 -4 -182 -8 -337
-10 -343 -5 -16 -98 -17 -126 -2 -18 9 -19 17 -13 65 3 30 3 88 -1 129 l-7 75
-89 0 -88 0 -3 -137 -3 -138 -52 -3 c-97 -6 -91 -30 -87 354 3 232 7 341 15
350 16 20 103 18 124 -2z m564 6 c10 -5 40 -54 66 -109 l48 -100 40 77 c21 42
50 92 64 110 22 30 28 32 83 32 82 0 88 -14 45 -101 -19 -36 -47 -88 -62 -115
-16 -27 -44 -83 -62 -124 -32 -71 -34 -82 -38 -215 -5 -157 -9 -165 -74 -165
-71 0 -69 -5 -69 166 l0 154 -90 178 c-49 99 -90 186 -90 195 0 8 6 18 13 20
22 9 108 7 126 -3z"/>
<path d="M5127 5528 c-4 -116 -7 -305 -7 -420 0 -184 2 -209 16 -215 9 -3 75
-2 146 3 l129 10 36 36 c51 51 62 121 62 373 0 385 -27 423 -305 425 l-71 0
-6 -212z"/>
<path d="M2798 5437 c-14 -51 -40 -134 -56 -184 l-30 -93 124 0 123 0 -13 43
c-7 23 -34 99 -60 169 -25 70 -46 132 -46 137 0 6 -3 12 -7 14 -5 3 -20 -36
-35 -86z"/>
<path d="M2425 4202 c-6 -4 -11 -37 -11 -74 l0 -68 72 0 c82 0 104 13 104 61
0 43 -15 65 -51 78 -36 12 -99 14 -114 3z"/>
<path d="M3621 4193 c-30 -24 -41 -79 -41 -203 0 -124 11 -179 41 -202 43 -36
121 -16 139 36 17 47 24 226 10 290 -8 39 -19 62 -37 76 -32 25 -84 26 -112 3z"/>
<path d="M4708 4196 c-31 -23 -39 -68 -40 -206 -1 -138 8 -182 40 -206 22 -17
70 -17 102 -1 37 19 49 68 49 207 0 139 -12 188 -49 207 -32 16 -80 16 -102
-1z"/>
<path d="M5860 4203 c0 -5 -2 -38 -4 -75 l-4 -68 74 0 c82 0 104 13 104 61 0
43 -15 65 -51 78 -36 12 -119 15 -119 4z"/>
<path d="M6512 4053 c-5 -21 -17 -59 -25 -85 l-15 -48 59 0 58 0 -30 82 c-17
45 -32 84 -33 86 -2 1 -8 -14 -14 -35z"/>
<path d="M7058 4204 c-5 -4 -8 -38 -8 -76 l0 -68 70 0 c57 0 74 4 90 20 26 26
25 63 -3 95 -18 21 -34 27 -82 32 -33 3 -63 2 -67 -3z"/>
</g>
</svg>
